<?xml version="1.0" encoding="utf-8"?>
<!-- Generator: Adobe Illustrator 25.2.0, SVG Export Plug-In . SVG Version: 6.00 Build 0)  -->
<svg version="1.1" id="Layer_3" xmlns="http://www.w3.org/2000/svg" xmlns:xlink="http://www.w3.org/1999/xlink" x="0px" y="0px"
	 viewBox="0 0 249.1 302.4" style="enable-background:new 0 0 249.1 302.4;" xml:space="preserve">
<style type="text/css">
	.st0{fill:#FF3300;}
</style>
<g>
	<path class="st0" d="M76.3,282c9.3,21.4,17.4,15.7,51.4,15.8c35.4,0,45.5,5.9,54.1-18.6c7-16.9,19.2-40.7,19.6-41.8
		c1-2,1.5-3.1,2.8-5.4c3.4-6.1,4.9-11.6,4.8-18.2c-0.3-15.1-1.4-30.4-0.9-45.5l6.3-32.4c0,0,12.2-15.3,13.2,3.7
		c0,0-2.9,33.8-11.2,38H210l7.8,73.4c0,0,16.6,14.3,20.1,12.7l-10.3-17.4v-14.3l12.2,26.5l2-11.7c0,0,9.8-19,0-36.4L221.7,182
		l16.2,12.1l-5-29.4c0,0,0.6-24.4-14-49.5c-2.9-5.5-2.4-10.6-2.1-15.1c0.2-1.1,0.3-2.3,0.5-3.5c2-13.7,0.6-29-7.6-43.2
		c-0.4,7.2,0.3,10.7-6.3,17.6c-1,0.9-3.6,2.6-4.5,3.1c9.5-9.8,7.1-20.2,2.6-30.7c-0.1-0.2-0.2-0.3-0.2-0.5
		c-6-13.1-15.1-22.9-29.3-28.3c13.4,22.1,16.4,33.5,13.1,49c-2.5-37.7-18.9-56.7-52.1-59c18.2,12,28.1,27.4,29.8,47.8
		C150.4,3.1,109.6-4.1,76.9,13c26.9,4.3,53.8,20.3,58.1,34.9C126.1,37,115.6,29,102.8,24.4c-10.3-3.7-20.7-7.3-32.1-3.3
		c-19.5,6.7-31,20.6-36.9,39.7c-2.7,8.8-3.5,17.9-1.8,27.1c5.8-15.3,14.9-27.6,30.3-33.9c14.8-6.1,29.8-7.3,44.1-0.6
		c-6.6-0.7-13.9-2.3-21.1-1.9c-7.5,0.4-14.7,2.3-21.2,5.5c-21.6,5.8-33,37.5-33,37.5c1.1,32.9-16.1,82.5-16.1,82.5L26.4,164
		c-0.7,15.3-13,31.1-13,31.1c-20.1,28.8-2.7,65.7-2.7,65.7c2.2,2.9,12-14.7,12-14.7c1.1,12.9-11.9,26.4-11.9,26.4
		c10.9,6.5,21.7-6.5,21.7-6.5c9.8,0,12.5-79.8,12.5-79.8l-8.2-5.9c-14.1-21.7-8.7-48.1-8.7-48.1c14.7-12.9,19,38.1,19,38.1l0.2-0.8
		c0.5,15.6-0.6,31.2-0.9,46.9c-0.1,5,1.2,9.2,3.8,13.9c1.5,2.7,2.2,4.3,3.3,6.4 M52.2,142.7c2-14.8,3.8-29.7,6-44.5
		c0.4-2.7,1.9-5.4,3.2-7.9c4.3-8.4,8.2-10.2,17.1-7.2c32.9,11.2,65.7,11.2,98.6,0.3c10.5-3.5,14.9-1.2,18.9,9.2
		c1.4,3.5,2.3,7.3,2.7,11c1.4,13.2,2.4,26.3,3.6,40.2c-5.1-0.6-8-0.5-15.9-1.9c-11-1.1-15.3-1.6-26.3-1.1c-8,1.4-11.1,2.4-16.7,3.6
		c-2.7,0.6-4.8,1.3-6.9,3.9c-3.3,4.1-14.5,2.3-18.4-1.9c-0.8-0.9-2.2-1.3-3.5-1.5c-9.3-2-15.7-2.4-25.1-3.4
		c-5.1-0.6-20.4,0.2-25.6,1c-3.3,0.5-6.7,1-9.8,1.5c-0.3,0.1-0.6,0.1-1,0.1C52.3,143,52.1,142.9,52.2,142.7z M192.5,147
		c-7.7,0-15.5-0.1-23.2,0c-11.1,0.1-21.6,1.9-32.1,6.2c-5.6,2.3-13.6,2.2-19.2-0.1c-10-4-20-5.9-30.5-6.1L62.8,145
		c18.2-0.7,26,0,43.6,2.3c3.6,0.3,7.2,2.1,10.7,3.7c6.6,2.9,13.5,3.5,19.9,0.4c13.8-6.8,28.4-6.3,43-5.9
		C184.1,145.6,188.3,146.1,192.5,147z M159.8,251.7c-5.2,3.7-10.7,6.3-17.3,3.9c-9.9-3.7-19.6-3.9-29.4-0.1
		c-6.6,2.6-12.2-0.1-18.4-4.3c2.4-1.7,4.3-3.6,6.5-4.5c8.4-3.4,17-6.6,25.4-9.8c0.3-0.1,0.8-0.4,1.1-0.3
		c10.8,4.2,21.7,8.5,32.5,12.7C160.1,250.1,159.9,250.9,159.8,251.7z M196.1,227.7L182,245.4c-3.7-2.4-7.4-4.7-10.9-7.3
		c-5.6-4.2-10.7-9.3-16.6-13c-6.8-4.3-14.1-7.2-22.4-2.6c-2.3,1.2-6.4,1.3-8.7,0.1c-8.5-4.6-16-1.7-22.9,2.8
		c-5.9,3.8-11,8.8-16.6,13.1c-2.9,2.2-6.1,4.2-9.1,6.3c-2.1,0-2.4-1.5-3.1-2.5c-7.4-10.9-9.6-15-12.1-19.2c-2.2-3.6-2-6.2-4.3-16.4
		c-3.8-17.3-7.3-32.9-4.5-50.9c0.5-0.2,1.1-0.4,1.6-0.6c1.8,4.2,3.9,8.4,5.3,12.7C64,186.9,64,187,83.9,187.9c2.3,0.1,4.6,0,6.8,0.3
		c12.8,1.7,21.1-4.1,26.5-15.2c1.7-3.4,3.3-6.8,5.4-10c3-4.7,7.3-4.6,10.3,0.2c2.8,4.7,5.3,9.6,8.1,14.4
		c4.2,7.1,10.2,11.1,18.8,10.6c7.6-0.4,15.2-0.7,22.8-1.1c5.7-0.3,9.6-3.2,11.4-8.7c1.4-4.3,2.8-8.7,4.5-12.9
		c1.2-3.3,2.8-6.4,4.9-9.4C207.7,173.7,204.8,212.1,196.1,227.7z"/>
</g>
</svg>
